<svg width="48" height="48" viewBox="0 0 48 48" fill="none" xmlns="http://www.w3.org/2000/svg">
<rect width="47.1111" height="47.6125" rx="23.5556" fill="#454ADE"/>
<path d="M13.7324 12.028V28.5578C13.7324 29.1957 14.2495 29.7128 14.8873 29.7128H31.8476C32.4854 29.7128 33.0025 29.1957 33.0025 28.5578V12.028C33.0025 11.3902 32.4854 10.8731 31.8476 10.8731H14.8873C14.2495 10.8731 13.7324 11.3902 13.7324 12.028Z" fill="#DEBC2F"/>
<path d="M26.5592 24.2065C26.5592 24.7879 25.5835 25.0787 23.6322 25.0787C21.9469 25.0787 20.6115 24.645 19.626 23.7778C18.6503 22.9006 18.1625 21.6589 18.1625 20.0525C18.1625 18.1898 18.7341 16.6918 19.8773 15.5584C21.0304 14.4152 22.5432 13.8436 24.4157 13.8436C25.8644 13.8436 27.0273 14.2723 27.9045 15.1297C28.7816 15.9871 29.2202 17.0663 29.2202 18.3672C29.2202 19.6681 28.9146 20.6388 28.3036 21.2794C27.7024 21.92 26.9633 22.2403 26.0862 22.2403C25.7806 22.2403 25.4801 22.1763 25.1844 22.0482C24.8986 21.92 24.6867 21.7771 24.5487 21.6195C24.0855 22.0235 23.5336 22.2256 22.893 22.2256C22.2623 22.2256 21.7745 22.058 21.4295 21.7229C21.0944 21.3879 20.9269 20.8803 20.9269 20.2003C20.9269 19.1261 21.3063 18.2194 22.0652 17.4802C22.824 16.7411 23.6667 16.3715 24.5931 16.3715C25.3716 16.3715 25.8496 16.5242 26.027 16.8298C26.1157 16.9874 26.1601 17.155 26.1601 17.3324C26.1601 17.4999 26.0221 18.584 25.7462 20.5846L26.367 20.6142C26.5247 20.6142 26.6726 20.5551 26.8105 20.4368C26.9485 20.3186 27.0569 20.1855 27.1358 20.0377C27.3427 19.6829 27.4462 19.1458 27.4462 18.4263C27.4462 17.4802 27.1604 16.7312 26.5888 16.1793C26.0172 15.6176 25.2632 15.3367 24.327 15.3367C22.9374 15.3367 21.8336 15.7654 21.0156 16.6228C20.2075 17.4802 19.8034 18.5988 19.8034 19.9785C19.8034 22.3241 21.2078 23.4969 24.0165 23.4969C24.8838 23.4969 25.5835 23.4082 26.1157 23.2308C26.165 23.2801 26.2389 23.3737 26.3375 23.5117C26.4853 23.7679 26.5592 23.9995 26.5592 24.2065ZM24.0165 18.1159C23.7997 18.1159 23.578 18.3081 23.3513 18.6924C23.1345 19.0768 23.0162 19.5252 22.9965 20.0377C22.9965 20.4023 23.1591 20.5846 23.4844 20.5846C23.6716 20.5846 23.8047 20.5403 23.8835 20.4516L24.1792 18.3376C24.1989 18.1898 24.1447 18.1159 24.0165 18.1159Z" fill="white"/>
<path d="M23.6489 26.1524C23.9 26.3417 23.8927 26.721 23.6346 26.9005L12.4717 34.6638C12.1654 34.8768 11.746 34.6576 11.746 34.2845L11.746 18.3662C11.746 18.1111 11.9528 17.9042 12.208 17.9042H12.5549C12.6552 17.9042 12.7529 17.9369 12.833 17.9973L23.6489 26.1524Z" fill="#E17572"/>
<path d="M23.3081 26.1524C23.057 26.3417 23.0643 26.721 23.3225 26.9005L34.4853 34.6638C34.7916 34.8768 35.211 34.6576 35.211 34.2845L35.211 18.3662C35.211 18.1111 35.0042 17.9042 34.7491 17.9042H34.4022C34.3018 17.9042 34.2042 17.9369 34.124 17.9973L23.3081 26.1524Z" fill="#E17572"/>
<path d="M23.156 23.021C23.3357 22.8443 23.6239 22.8443 23.8036 23.021L35.0437 34.0694C35.3386 34.3593 35.1333 34.8608 34.7198 34.8608H12.2398C11.8263 34.8608 11.621 34.3593 11.9159 34.0694L23.156 23.021Z" fill="#DE5F5B"/>
</svg>
