<svg width="52" height="54" viewBox="0 0 52 54" fill="none" xmlns="http://www.w3.org/2000/svg">
<rect width="51.2138" height="53.5641" rx="25.6069" fill="#454ADE"/>
<path d="M14.9287 13.5315V32.1276C14.9287 32.8452 15.5104 33.4269 16.228 33.4269H34.5776C35.2952 33.4269 35.8769 32.8452 35.8769 32.1276V13.5315C35.8769 12.814 35.2952 12.2323 34.5776 12.2323H16.228C15.5104 12.2323 14.9287 12.814 14.9287 13.5315Z" fill="#DEBC2F"/>
<path d="M29.2131 26.4823C29.2131 27.1364 28.1155 27.4635 25.9202 27.4635C24.0243 27.4635 22.5219 26.9757 21.4132 26C20.3156 25.0132 19.7668 23.6162 19.7668 21.809C19.7668 19.7135 20.4098 18.0283 21.6959 16.7532C22.9932 15.4671 24.695 14.8241 26.8016 14.8241C28.4315 14.8241 29.7397 15.3064 30.7265 16.2709C31.7133 17.2355 32.2067 18.4496 32.2067 19.9131C32.2067 21.3766 31.863 22.4687 31.1755 23.1894C30.4992 23.9101 29.6677 24.2704 28.6809 24.2704C28.3372 24.2704 27.999 24.1983 27.6664 24.0542C27.3449 23.9101 27.1065 23.7493 26.9513 23.5719C26.4302 24.0265 25.8093 24.2538 25.0886 24.2538C24.3791 24.2538 23.8302 24.0653 23.4422 23.6883C23.0652 23.3113 22.8767 22.7403 22.8767 21.9753C22.8767 20.7668 23.3036 19.7468 24.1573 18.9152C25.011 18.0837 25.959 17.6679 27.0012 17.6679C27.8771 17.6679 28.4148 17.8398 28.6144 18.1835C28.7142 18.3609 28.7641 18.5494 28.7641 18.7489C28.7641 18.9374 28.6088 20.157 28.2984 22.4077L28.9969 22.441C29.1743 22.441 29.3406 22.3745 29.4958 22.2414C29.651 22.1084 29.773 21.9587 29.8617 21.7924C30.0945 21.3932 30.211 20.789 30.211 19.9796C30.211 18.9152 29.8894 18.0726 29.2464 17.4517C28.6033 16.8198 27.7551 16.5038 26.7018 16.5038C25.1385 16.5038 23.8968 16.9861 22.9765 17.9507C22.0674 18.9152 21.6128 20.1737 21.6128 21.7259C21.6128 24.3646 23.1927 25.684 26.3526 25.684C27.3283 25.684 28.1155 25.5842 28.7142 25.3847C28.7696 25.4401 28.8528 25.5454 28.9636 25.7006C29.1299 25.9889 29.2131 26.2495 29.2131 26.4823ZM26.3526 19.6304C26.1087 19.6304 25.8592 19.8466 25.6042 20.279C25.3603 20.7114 25.2272 21.2159 25.2051 21.7924C25.2051 22.2026 25.388 22.4077 25.7539 22.4077C25.9645 22.4077 26.1142 22.3578 26.2029 22.2581L26.5355 19.8798C26.5577 19.7135 26.4967 19.6304 26.3526 19.6304Z" fill="white"/>
<path d="M25.718 29.4268C25.9913 29.6401 25.9832 30.0559 25.7019 30.2584L13.5948 38.972C13.2511 39.2194 12.7715 38.9737 12.7715 38.5502L12.7715 20.662C12.7715 20.3749 13.0042 20.1422 13.2913 20.1422H13.6402C13.756 20.1422 13.8686 20.181 13.9599 20.2522L25.718 29.4268Z" fill="#E17572"/>
<path d="M25.3338 29.4268C25.0605 29.6401 25.0686 30.0559 25.3499 30.2584L37.4569 38.972C37.8007 39.2194 38.2802 38.9737 38.2802 38.5502L38.2802 20.662C38.2802 20.3749 38.0475 20.1422 37.7605 20.1422H37.4116C37.2957 20.1422 37.1832 20.181 37.0919 20.2522L25.3338 29.4268Z" fill="#E17572"/>
<path d="M25.1557 25.9175C25.3594 25.7104 25.6933 25.7104 25.8969 25.9175L38.1034 38.3344C38.4265 38.6631 38.1937 39.2185 37.7328 39.2185H13.3198C12.8589 39.2185 12.6261 38.6631 12.9492 38.3344L25.1557 25.9175Z" fill="#DE5F5B"/>
</svg>
