<svg width="53" height="54" viewBox="0 0 53 54" fill="none" xmlns="http://www.w3.org/2000/svg">
<rect width="53" height="53.5641" rx="26.5" fill="#454ADE"/>
<path d="M15.4492 13.5315V32.1276C15.4492 32.8452 16.0309 33.4269 16.7485 33.4269H35.8288C36.5463 33.4269 37.1281 32.8452 37.1281 32.1276V13.5315C37.1281 12.8139 36.5463 12.2322 35.8288 12.2322H16.7485C16.0309 12.2322 15.4492 12.814 15.4492 13.5315Z" fill="#DEBC2F"/>
<path d="M29.8801 26.4823C29.8801 27.1364 28.7825 27.4635 26.5872 27.4635C24.6913 27.4635 23.1889 26.9757 22.0802 26C20.9826 25.0132 20.4338 23.6162 20.4338 21.809C20.4338 19.7135 21.0768 18.0283 22.3629 16.7532C23.6601 15.4671 25.362 14.8241 27.4686 14.8241C29.0984 14.8241 30.4067 15.3064 31.3935 16.2709C32.3803 17.2355 32.8737 18.4496 32.8737 19.9131C32.8737 21.3766 32.5299 22.4687 31.8425 23.1894C31.1662 23.9101 30.3347 24.2704 29.3479 24.2704C29.0042 24.2704 28.666 24.1983 28.3334 24.0542C28.0119 23.9101 27.7735 23.7493 27.6183 23.5719C27.0972 24.0265 26.4763 24.2538 25.7556 24.2538C25.0461 24.2538 24.4972 24.0653 24.1092 23.6883C23.7322 23.3113 23.5437 22.7403 23.5437 21.9753C23.5437 20.7668 23.9706 19.7468 24.8243 18.9152C25.678 18.0837 26.626 17.6679 27.6682 17.6679C28.5441 17.6679 29.0818 17.8398 29.2814 18.1835C29.3812 18.3609 29.4311 18.5494 29.4311 18.7489C29.4311 18.9374 29.2758 20.157 28.9654 22.4077L29.6639 22.441C29.8413 22.441 30.0076 22.3745 30.1628 22.2414C30.318 22.1084 30.44 21.9587 30.5287 21.7924C30.7615 21.3932 30.8779 20.789 30.8779 19.9796C30.8779 18.9152 30.5564 18.0726 29.9134 17.4517C29.2703 16.8198 28.4221 16.5038 27.3688 16.5038C25.8055 16.5038 24.5638 16.9861 23.6435 17.9507C22.7344 18.9152 22.2798 20.1737 22.2798 21.7259C22.2798 24.3646 23.8597 25.684 27.0196 25.684C27.9953 25.684 28.7825 25.5842 29.3812 25.3847C29.4366 25.4401 29.5198 25.5454 29.6306 25.7006C29.7969 25.9889 29.8801 26.2495 29.8801 26.4823ZM27.0196 19.6304C26.7757 19.6304 26.5262 19.8466 26.2712 20.279C26.0273 20.7114 25.8942 21.2159 25.8721 21.7924C25.8721 22.2026 26.055 22.4077 26.4209 22.4077C26.6315 22.4077 26.7812 22.3578 26.8699 22.2581L27.2025 19.8798C27.2247 19.7135 27.1637 19.6304 27.0196 19.6304Z" fill="white"/>
<path d="M26.6048 29.4214C26.8872 29.6343 26.879 30.0611 26.5887 30.2631L14.0305 38.9967C13.6859 39.2364 13.214 38.9898 13.214 38.57L13.214 20.662C13.214 20.3749 13.4467 20.1422 13.7337 20.1422H14.124C14.2369 20.1422 14.3467 20.179 14.4369 20.247L26.6048 29.4214Z" fill="#E17572"/>
<path d="M26.2233 29.4214C25.9409 29.6343 25.9491 30.0611 26.2395 30.2631L38.7977 38.9967C39.1423 39.2364 39.6141 38.9898 39.6141 38.57L39.6141 20.662C39.6141 20.3749 39.3814 20.1422 39.0944 20.1422H38.7041C38.5912 20.1422 38.4814 20.179 38.3913 20.247L26.2233 29.4214Z" fill="#E17572"/>
<path d="M26.0512 25.8986C26.2534 25.6999 26.5776 25.6999 26.7798 25.8986L39.4249 38.3281C39.7566 38.6542 39.5257 39.2185 39.0605 39.2185H13.7705C13.3053 39.2185 13.0744 38.6542 13.4061 38.3281L26.0512 25.8986Z" fill="#DE5F5B"/>
</svg>
