<svg width="44" height="44" viewBox="0 0 44 44" fill="none" xmlns="http://www.w3.org/2000/svg">
<rect width="44" height="44" rx="22" fill="#454ADE"/>
<path d="M26.3149 30.638C26.3149 31.5033 24.8629 31.936 21.9589 31.936C19.4509 31.936 17.4636 31.2907 15.9969 30C14.5449 28.6947 13.8189 26.8467 13.8189 24.456C13.8189 21.684 14.6696 19.4547 16.3709 17.768C18.0869 16.0667 20.3383 15.216 23.1249 15.216C25.2809 15.216 27.0116 15.854 28.3169 17.13C29.6223 18.406 30.2749 20.012 30.2749 21.948C30.2749 23.884 29.8203 25.3287 28.9109 26.282C28.0163 27.2353 26.9163 27.712 25.6109 27.712C25.1563 27.712 24.7089 27.6167 24.2689 27.426C23.8436 27.2353 23.5283 27.0227 23.3229 26.788C22.6336 27.3893 21.8123 27.69 20.8589 27.69C19.9203 27.69 19.1943 27.4407 18.6809 26.942C18.1823 26.4433 17.9329 25.688 17.9329 24.676C17.9329 23.0773 18.4976 21.728 19.6269 20.628C20.7563 19.528 22.0103 18.978 23.3889 18.978C24.5476 18.978 25.2589 19.2053 25.5229 19.66C25.6549 19.8947 25.7209 20.144 25.7209 20.408C25.7209 20.6573 25.5156 22.2707 25.1049 25.248L26.0289 25.292C26.2636 25.292 26.4836 25.204 26.6889 25.028C26.8943 24.852 27.0556 24.654 27.1729 24.434C27.4809 23.906 27.6349 23.1067 27.6349 22.036C27.6349 20.628 27.2096 19.5133 26.3589 18.692C25.5083 17.856 24.3863 17.438 22.9929 17.438C20.9249 17.438 19.2823 18.076 18.0649 19.352C16.8623 20.628 16.2609 22.2927 16.2609 24.346C16.2609 27.8367 18.3509 29.582 22.5309 29.582C23.8216 29.582 24.8629 29.45 25.6549 29.186C25.7283 29.2593 25.8383 29.3987 25.9849 29.604C26.2049 29.9853 26.3149 30.33 26.3149 30.638ZM22.5309 21.574C22.2083 21.574 21.8783 21.86 21.5409 22.432C21.2183 23.004 21.0423 23.6713 21.0129 24.434C21.0129 24.9767 21.2549 25.248 21.7389 25.248C22.0176 25.248 22.2156 25.182 22.3329 25.05L22.7729 21.904C22.8023 21.684 22.7216 21.574 22.5309 21.574Z" fill="white"/>
</svg>
