<svg width="62" height="65" viewBox="0 0 62 65" fill="none" xmlns="http://www.w3.org/2000/svg">
<rect width="62" height="64.8453" rx="31" fill="#454ADE"/>
<path d="M37.0803 43.6366C37.0803 44.8559 35.0343 45.4656 30.9423 45.4656C27.4083 45.4656 24.608 44.5562 22.5413 42.7376C20.4953 40.8982 19.4723 38.2942 19.4723 34.9256C19.4723 31.0196 20.671 27.8782 23.0683 25.5016C25.4863 23.1042 28.6587 21.9056 32.5853 21.9056C35.6233 21.9056 38.062 22.8046 39.9013 24.6026C41.7407 26.4006 42.6603 28.6636 42.6603 31.3916C42.6603 34.1196 42.0197 36.1552 40.7383 37.4986C39.4777 38.8419 37.9277 39.5136 36.0883 39.5136C35.4477 39.5136 34.8173 39.3792 34.1973 39.1106C33.598 38.8419 33.1537 38.5422 32.8643 38.2116C31.893 39.0589 30.7357 39.4826 29.3923 39.4826C28.0697 39.4826 27.0467 39.1312 26.3233 38.4286C25.6207 37.7259 25.2693 36.6616 25.2693 35.2356C25.2693 32.9829 26.065 31.0816 27.6563 29.5316C29.2477 27.9816 31.0147 27.2066 32.9573 27.2066C34.59 27.2066 35.5923 27.5269 35.9643 28.1676C36.1503 28.4982 36.2433 28.8496 36.2433 29.2216C36.2433 29.5729 35.954 31.8462 35.3753 36.0416L36.6773 36.1036C37.008 36.1036 37.318 35.9796 37.6073 35.7316C37.8967 35.4836 38.124 35.2046 38.2893 34.8946C38.7233 34.1506 38.9403 33.0242 38.9403 31.5156C38.9403 29.5316 38.341 27.9609 37.1423 26.8036C35.9437 25.6256 34.3627 25.0366 32.3993 25.0366C29.4853 25.0366 27.1707 25.9356 25.4553 27.7336C23.7607 29.5316 22.9133 31.8772 22.9133 34.7706C22.9133 39.6892 25.8583 42.1486 31.7483 42.1486C33.567 42.1486 35.0343 41.9626 36.1503 41.5906C36.2537 41.6939 36.4087 41.8902 36.6153 42.1796C36.9253 42.7169 37.0803 43.2026 37.0803 43.6366ZM31.7483 30.8646C31.2937 30.8646 30.8287 31.2676 30.3533 32.0736C29.8987 32.8796 29.6507 33.8199 29.6093 34.8946C29.6093 35.6592 29.9503 36.0416 30.6323 36.0416C31.025 36.0416 31.304 35.9486 31.4693 35.7626L32.0893 31.3296C32.1307 31.0196 32.017 30.8646 31.7483 30.8646Z" fill="white"/>
</svg>
