<svg width="62" height="62" viewBox="0 0 62 62" fill="none" xmlns="http://www.w3.org/2000/svg">
<rect width="62" height="62" rx="31" fill="#454ADE"/>
<path d="M37.0803 42.9899C37.0803 44.2093 35.0343 44.8189 30.9423 44.8189C27.4083 44.8189 24.608 43.9096 22.5413 42.0909C20.4953 40.2516 19.4723 37.6476 19.4723 34.2789C19.4723 30.3729 20.671 27.2316 23.0683 24.8549C25.4863 22.4576 28.6587 21.2589 32.5853 21.2589C35.6233 21.2589 38.062 22.1579 39.9013 23.9559C41.7407 25.7539 42.6603 28.0169 42.6603 30.7449C42.6603 33.4729 42.0197 35.5086 40.7383 36.8519C39.4777 38.1953 37.9277 38.8669 36.0883 38.8669C35.4477 38.8669 34.8173 38.7326 34.1973 38.4639C33.598 38.1953 33.1537 37.8956 32.8643 37.5649C31.893 38.4123 30.7357 38.8359 29.3923 38.8359C28.0697 38.8359 27.0467 38.4846 26.3233 37.7819C25.6207 37.0793 25.2693 36.0149 25.2693 34.5889C25.2693 32.3363 26.065 30.4349 27.6563 28.8849C29.2477 27.3349 31.0147 26.5599 32.9573 26.5599C34.59 26.5599 35.5923 26.8803 35.9643 27.5209C36.1503 27.8516 36.2433 28.2029 36.2433 28.5749C36.2433 28.9263 35.954 31.1996 35.3753 35.3949L36.6773 35.4569C37.008 35.4569 37.318 35.3329 37.6073 35.0849C37.8967 34.8369 38.124 34.5579 38.2893 34.2479C38.7233 33.5039 38.9403 32.3776 38.9403 30.8689C38.9403 28.8849 38.341 27.3143 37.1423 26.1569C35.9437 24.9789 34.3627 24.3899 32.3993 24.3899C29.4853 24.3899 27.1707 25.2889 25.4553 27.0869C23.7607 28.8849 22.9133 31.2306 22.9133 34.1239C22.9133 39.0426 25.8583 41.5019 31.7483 41.5019C33.567 41.5019 35.0343 41.3159 36.1503 40.9439C36.2537 41.0473 36.4087 41.2436 36.6153 41.5329C36.9253 42.0703 37.0803 42.5559 37.0803 42.9899ZM31.7483 30.2179C31.2937 30.2179 30.8287 30.6209 30.3533 31.4269C29.8987 32.2329 29.6507 33.1733 29.6093 34.2479C29.6093 35.0126 29.9503 35.3949 30.6323 35.3949C31.025 35.3949 31.304 35.3019 31.4693 35.1159L32.0893 30.6829C32.1307 30.3729 32.017 30.2179 31.7483 30.2179Z" fill="white"/>
</svg>
