<svg width="44" height="44" viewBox="0 0 44 44" fill="none" xmlns="http://www.w3.org/2000/svg">
<rect width="44" height="44" rx="22" fill="#454ADE"/>
<path d="M18.4496 29.868C18.4496 29.9853 17.7749 30.044 16.4256 30.044C15.0909 30.044 14.4236 29.9927 14.4236 29.89V19.088C14.4236 18.9853 15.0909 18.934 16.4256 18.934C17.7749 18.934 18.4496 18.978 18.4496 19.066V29.868ZM18.4496 17.768C18.4496 17.8707 17.7749 17.922 16.4256 17.922C15.0909 17.922 14.4236 17.878 14.4236 17.79V14.622C14.4236 14.4753 15.0909 14.402 16.4256 14.402C17.7749 14.402 18.4496 14.446 18.4496 14.534V17.768ZM25.0372 29.868C25.0372 29.9707 24.5092 30.022 23.4532 30.022C21.9866 29.978 21.2532 29.8973 21.2532 29.78V22.652H20.6812C20.2999 22.652 20.0506 22.3293 19.9332 21.684C19.9039 21.4933 19.8892 21.3027 19.8892 21.112C19.8892 20.6573 19.9772 20.2027 20.1532 19.748C20.4172 19.1027 20.8279 18.78 21.3852 18.78C21.9426 18.78 22.4412 18.912 22.8812 19.176C23.3212 19.44 23.6146 19.704 23.7612 19.968C24.6852 19.176 25.7852 18.78 27.0612 18.78C28.3372 18.78 29.2612 19.1247 29.8332 19.814C30.4052 20.5033 30.6912 21.6327 30.6912 23.202V29.802C30.6912 29.978 30.0606 30.066 28.7992 30.066C27.5526 30.066 26.9292 29.978 26.9292 29.802V23.444C26.9292 22.7107 26.6726 22.344 26.1592 22.344C26.0126 22.344 25.8072 22.41 25.5432 22.542C25.2792 22.6593 25.1106 22.7473 25.0372 22.806V29.868Z" fill="white"/>
</svg>
