<svg width="60" height="60" viewBox="0 0 60 60" fill="none" xmlns="http://www.w3.org/2000/svg">
<rect width="60" height="60" rx="30" fill="#454ADE"/>
<path d="M25.1583 41.4564C25.1583 41.6164 24.2383 41.6964 22.3983 41.6964C20.5783 41.6964 19.6683 41.6264 19.6683 41.4864V26.7564C19.6683 26.6164 20.5783 26.5464 22.3983 26.5464C24.2383 26.5464 25.1583 26.6064 25.1583 26.7264V41.4564ZM25.1583 24.9564C25.1583 25.0964 24.2383 25.1664 22.3983 25.1664C20.5783 25.1664 19.6683 25.1064 19.6683 24.9864V20.6664C19.6683 20.4664 20.5783 20.3664 22.3983 20.3664C24.2383 20.3664 25.1583 20.4264 25.1583 20.5464V24.9564ZM34.1414 41.4564C34.1414 41.5964 33.4214 41.6664 31.9814 41.6664C29.9814 41.6064 28.9814 41.4964 28.9814 41.3364V31.6164H28.2014C27.6814 31.6164 27.3414 31.1764 27.1814 30.2964C27.1414 30.0364 27.1214 29.7764 27.1214 29.5164C27.1214 28.8964 27.2414 28.2764 27.4814 27.6564C27.8414 26.7764 28.4014 26.3364 29.1614 26.3364C29.9214 26.3364 30.6014 26.5164 31.2014 26.8764C31.8014 27.2364 32.2014 27.5964 32.4014 27.9564C33.6614 26.8764 35.1614 26.3364 36.9014 26.3364C38.6414 26.3364 39.9014 26.8064 40.6814 27.7464C41.4614 28.6864 41.8514 30.2264 41.8514 32.3664V41.3664C41.8514 41.6064 40.9914 41.7264 39.2714 41.7264C37.5714 41.7264 36.7214 41.6064 36.7214 41.3664V32.6964C36.7214 31.6964 36.3714 31.1964 35.6714 31.1964C35.4714 31.1964 35.1914 31.2864 34.8314 31.4664C34.4714 31.6264 34.2414 31.7464 34.1414 31.8264V41.4564Z" fill="white"/>
</svg>
