<svg width="48" height="48" viewBox="0 0 48 48" fill="none" xmlns="http://www.w3.org/2000/svg">
<rect x="0.443359" width="47.1111" height="48" rx="7.52941" fill="#454ADE"/>
<path fill-rule="evenodd" clip-rule="evenodd" d="M16.2985 10.7198C15.8841 10.5477 21.5113 10.5915 21.9476 14.0968C22.0886 15.2297 22.1839 18.1033 22.2483 21.4741C23.7812 19.9119 30.7213 12.8397 31.1099 12.4445C31.5469 12 32.4177 14.2222 31.5461 15.5556C30.6745 16.8889 24.5667 22.6667 24.5667 22.6667V23.1111C24.5667 23.1111 31.1099 16.4445 31.5469 16.4445C31.984 16.4445 32.4177 18.6667 31.5461 19.5556C30.6745 20.4445 25.4399 25.3333 25.4399 25.3333L25.8753 25.3333C25.8753 25.3333 31.5461 20 31.9831 19.5556C32.4202 19.1111 32.4194 20.4445 31.9823 21.7778C31.5453 23.1111 29.365 24.8889 29.365 24.8889C29.4103 25.1163 31.6023 23.3694 31.9823 22.6667C32.3623 21.964 31.9823 24 31.1107 25.3333C30.2391 26.6667 28.5446 28.1606 26.3124 28.8889C26.3124 28.8889 34.1626 36.4445 34.5996 36.8889C35.0366 37.3333 32.5692 38.3748 31.5461 37.3333C30.523 36.2919 26.7478 32.8889 26.3115 32.8889C25.8753 32.8889 26.3115 33.3333 26.3115 33.3333C27.2733 34.6399 27.4679 34.8652 27.721 35.1582L27.721 35.1582C27.8123 35.2639 27.9112 35.3783 28.0564 35.5556C28.6043 36.2241 25.8753 36 25.4391 35.5556C25.2713 35.3846 23.942 34.2932 22.3695 33.0147C22.3825 35.8145 22.3823 37.7706 22.3823 37.7706C22.3823 37.7706 16.7286 38.2089 16.7286 32.0747C16.7286 31.0694 16.7171 29.82 16.6977 28.4335C16.5312 28.3279 15.1898 27.4924 14.5346 27.5556C13.7761 27.6287 12.7897 28.4445 12.7897 28.4445C12.7897 28.4445 12.485 27.2876 12.7897 26.6667C13.0052 26.2276 13.6613 25.7778 13.6613 25.7778C13.6613 25.7778 13.7284 25.275 14.0984 24.8889C14.4684 24.5028 14.7429 24.4186 15.407 24.4445C15.9259 24.4647 16.4328 24.4533 16.6297 24.4474C16.5027 17.9463 16.2985 10.7198 16.2985 10.7198ZM15.4028 24.8889C15.4028 24.8889 15.6566 25.3298 15.2221 25.5854C14.7876 25.841 14.5338 25.4 14.5338 25.4L14.9683 25.1444L15.4028 24.8889Z" fill="white"/>
</svg>
