<svg width="53" height="54" viewBox="0 0 53 54" fill="none" xmlns="http://www.w3.org/2000/svg">
<rect width="53" height="54" rx="8.47059" fill="#454ADE"/>
<path fill-rule="evenodd" clip-rule="evenodd" d="M17.8378 12.0598C17.3716 11.8662 23.7022 11.9155 24.193 15.8589C24.3517 17.1332 24.4588 20.3652 24.5313 24.1566C26.2593 22.3956 34.0618 14.4445 34.4989 14C34.9905 13.5 35.9702 16 34.9896 17.5C34.0091 19 27.1378 25.5 27.1378 25.5V26C27.1378 26 34.4989 18.5 34.9905 18.5C35.4822 18.5 35.9702 21 34.9896 22C34.0091 23 28.1202 28.5 28.1202 28.5L28.61 28.5C28.61 28.5 34.9896 22.5 35.4813 22C35.973 21.5 35.972 23 35.4804 24.5C34.9887 26 32.5359 28 32.5359 28C32.5869 28.2559 35.0529 26.2905 35.4804 25.5C35.9078 24.7095 35.4804 27 34.4998 28.5C33.5193 30 31.6129 31.6807 29.1017 32.5C29.1017 32.5 37.9331 41 38.4248 41.5C38.9165 42 36.1406 43.1716 34.9896 42C33.8386 40.8284 29.5915 37 29.1007 37C28.61 37 29.1007 37.5 29.1007 37.5C30.1827 38.9698 30.4016 39.2233 30.6863 39.5529L30.6864 39.553C30.7891 39.6719 30.9003 39.8007 31.0637 40C31.6801 40.7521 28.61 40.5 28.1192 40C27.9306 39.8078 26.436 38.5807 24.6677 37.143C24.6823 40.2919 24.6821 42.492 24.6821 42.492C24.6821 42.492 18.3217 42.985 18.3217 36.0841C18.3217 34.9534 18.3087 33.5482 18.287 31.9889C18.1076 31.875 16.5911 30.9287 15.8517 31C14.9984 31.0822 13.8887 32 13.8887 32C13.8887 32 13.5459 30.6986 13.8887 30C14.1311 29.506 14.8692 29 14.8692 29C14.8692 29 14.9447 28.4344 15.3609 28C15.7771 27.5656 16.086 27.4709 16.8331 27.5C17.4184 27.5228 17.9902 27.5099 18.2104 27.5032C18.0675 20.1896 17.8378 12.0598 17.8378 12.0598ZM16.8291 28C16.8291 28 17.1146 28.4961 16.6258 28.7836C16.137 29.0711 15.8515 28.5751 15.8515 28.5751L16.3403 28.2875L16.8291 28Z" fill="white"/>
</svg>
