<svg width="31" height="24" viewBox="0 0 31 24" fill="none" xmlns="http://www.w3.org/2000/svg">
<path fill-rule="evenodd" clip-rule="evenodd" d="M29 3H2V2H29V3ZM29 12.3333H2V11.3333H29V12.3333ZM2 21.6667H29V20.6667H2V21.6667Z" fill="white"/>
<path d="M2 3H0.5V4.5H2V3ZM29 3V4.5H30.5V3H29ZM2 2V0.5H0.5V2H2ZM29 2H30.5V0.5H29V2ZM2 12.3333H0.5V13.8333H2V12.3333ZM29 12.3333V13.8333H30.5V12.3333H29ZM2 11.3333V9.83333H0.5V11.3333H2ZM29 11.3333H30.5V9.83333H29V11.3333ZM29 21.6667V23.1667H30.5V21.6667H29ZM2 21.6667H0.5V23.1667H2V21.6667ZM29 20.6667H30.5V19.1667H29V20.6667ZM2 20.6667V19.1667H0.5V20.6667H2ZM2 4.5H29V1.5H2V4.5ZM0.5 2V3H3.5V2H0.5ZM29 0.5H2V3.5H29V0.5ZM30.5 3V2H27.5V3H30.5ZM2 13.8333H29V10.8333H2V13.8333ZM0.5 11.3333V12.3333H3.5V11.3333H0.5ZM29 9.83333H2V12.8333H29V9.83333ZM30.5 12.3333V11.3333H27.5V12.3333H30.5ZM29 20.1667H2V23.1667H29V20.1667ZM27.5 20.6667V21.6667H30.5V20.6667H27.5ZM2 22.1667H29V19.1667H2V22.1667ZM3.5 21.6667V20.6667H0.5V21.6667H3.5Z" fill="white"/>
</svg>
