<svg width="53" height="54" viewBox="0 0 53 54" fill="none" xmlns="http://www.w3.org/2000/svg">
<rect width="52.4833" height="54" rx="26.2416" fill="#454ADE"/>
<path d="M17.6329 15.2967H20.9964C22.0654 15.2967 22.932 16.1633 22.932 17.2323V23.972C22.932 25.041 22.0654 25.9077 20.9964 25.9077H17.6329C16.5639 25.9077 15.6973 25.041 15.6973 23.972V17.2323C15.6973 16.1633 16.5639 15.2967 17.6329 15.2967Z" fill="#6279B8"/>
<path d="M17.627 17.7082H19.3151" stroke="white" stroke-width="1.44695"/>
<path d="M17.627 20.1198H19.3151" stroke="white" stroke-width="1.44695"/>
<path d="M17.627 22.5314H19.3151" stroke="white" stroke-width="1.44695"/>
<path d="M19.0723 14.3385V23.6294C19.0723 24.6984 19.9389 25.565 21.0079 25.565H34.7508C35.8198 25.565 36.6864 24.6984 36.6864 23.6294V14.3385C36.6864 13.2694 35.8198 12.4028 34.7508 12.4028H21.0079C19.9389 12.4028 19.0723 13.2694 19.0723 14.3385Z" fill="#DEBC2F"/>
<path fill-rule="evenodd" clip-rule="evenodd" d="M31.3474 17.8745C32.0592 17.8745 32.6362 17.2975 32.6362 16.5857C32.6362 15.8739 32.0592 15.2969 31.3474 15.2969C30.6356 15.2969 30.0585 15.8739 30.0585 16.5857C30.0585 17.2975 30.6356 17.8745 31.3474 17.8745ZM26.8955 17.09L29.3389 19.8189L30.4262 18.603L33.5078 22.0493H31.3359L31.336 22.0493H22.4551L26.8955 17.09Z" fill="white"/>
<path d="M13.1211 26.2706C13.1211 25.2016 13.9877 24.335 15.0567 24.335H22.271C23.2389 24.335 24.058 23.62 24.1888 22.6609L24.3129 21.7507C24.4437 20.7917 25.2629 20.0766 26.2308 20.0766H33.7718C34.6147 20.0766 35.3607 20.6221 35.6163 21.4254L36.1129 22.9863C36.3685 23.7895 37.1145 24.335 37.9574 24.335H38.2841C39.3531 24.335 40.2197 25.2016 40.2197 26.2706V39.2392C40.2197 40.3082 39.3531 41.1748 38.2841 41.1748H15.0567C13.9877 41.1748 13.1211 40.3082 13.1211 39.2392V26.2706Z" fill="#DE5F5B"/>
</svg>
