<svg width="48" height="48" viewBox="0 0 48 48" fill="none" xmlns="http://www.w3.org/2000/svg">
<rect x="0.554688" width="47.1111" height="48" rx="23.5556" fill="#454ADE"/>
<path d="M16.3733 13.597L19.4139 13.597C20.3676 13.597 21.1407 14.3645 21.1407 15.3112L21.1407 21.3148C21.1407 22.2615 20.3676 23.029 19.4139 23.029L16.3733 23.029C15.4196 23.029 14.6465 22.2615 14.6465 21.3148L14.6465 15.3112C14.6465 14.3645 15.4196 13.597 16.3733 13.597Z" fill="#6279B8"/>
<path d="M16.3789 15.7406L17.8942 15.7406" stroke="white" stroke-width="1.28618"/>
<path d="M16.3789 17.8842L17.8942 17.8842" stroke="white" stroke-width="1.28618"/>
<path d="M16.3789 20.0279L17.8942 20.0279" stroke="white" stroke-width="1.28618"/>
<path d="M17.6738 12.7389L17.6738 21.0102C17.6738 21.957 18.447 22.7244 19.4007 22.7244L31.7581 22.7244C32.7118 22.7244 33.485 21.957 33.485 21.0102L33.485 12.7389C33.485 11.7922 32.7118 11.0247 31.7581 11.0247L19.4007 11.0247C18.447 11.0247 17.6738 11.7922 17.6738 12.7389Z" fill="#DEBC2F"/>
<path fill-rule="evenodd" clip-rule="evenodd" d="M28.6931 15.8885C29.3321 15.8885 29.8501 15.3755 29.8501 14.7428C29.8501 14.1101 29.3321 13.5972 28.6931 13.5972C28.0542 13.5972 27.5362 14.1101 27.5362 14.7428C27.5362 15.3755 28.0542 15.8885 28.6931 15.8885ZM24.7008 15.1911L26.893 17.6156L27.8678 16.536L30.634 19.5993L28.6866 19.5993L28.6867 19.5994L20.7148 19.5994L24.7008 15.1911Z" fill="white"/>
<path d="M12.332 23.3516C12.332 22.4014 13.1023 21.6311 14.0526 21.6311H20.5621C21.4216 21.6311 22.1493 20.9968 22.2666 20.1453L22.3786 19.3317C22.4959 18.4802 23.2235 17.8459 24.0831 17.8459H30.885C31.6325 17.8459 32.2944 18.3285 32.5231 19.0401L32.9719 20.4369C33.2006 21.1485 33.8625 21.6311 34.61 21.6311H34.9363C35.8865 21.6311 36.6568 22.4014 36.6568 23.3516V34.8793C36.6568 35.8295 35.8865 36.5998 34.9363 36.5998H14.0526C13.1023 36.5998 12.332 35.8295 12.332 34.8793V23.3516Z" fill="#DE5F5B"/>
</svg>
