<svg width="53" height="54" viewBox="0 0 53 54" fill="none" xmlns="http://www.w3.org/2000/svg">
<rect width="53" height="54" rx="26.5" fill="#454ADE"/>
<path d="M17.7943 15.2967L21.2149 15.2967C22.2878 15.2967 23.1576 16.1601 23.1576 17.2251L23.1576 23.9792C23.1576 25.0442 22.2878 25.9076 21.2149 25.9076L17.7943 25.9076C16.7213 25.9076 15.8516 25.0442 15.8516 23.9792L15.8516 17.2251C15.8516 16.1601 16.7213 15.2967 17.7943 15.2967Z" fill="#6279B8"/>
<path d="M17.8008 17.7082L19.5055 17.7082" stroke="white" stroke-width="1.44695"/>
<path d="M17.8008 20.1198L19.5055 20.1198" stroke="white" stroke-width="1.44695"/>
<path d="M17.8008 22.5314L19.5055 22.5314" stroke="white" stroke-width="1.44695"/>
<path d="M19.2598 14.3313L19.2598 23.6365C19.2598 24.7016 20.1295 25.565 21.2025 25.565L35.1046 25.565C36.1775 25.565 37.0473 24.7016 37.0473 23.6365L37.0473 14.3313C37.0473 13.2662 36.1775 12.4028 35.1046 12.4028L21.2025 12.4028C20.1295 12.4028 19.2598 13.2662 19.2598 14.3313Z" fill="#DEBC2F"/>
<path fill-rule="evenodd" clip-rule="evenodd" d="M31.6557 17.8745C32.3745 17.8745 32.9572 17.2975 32.9572 16.5857C32.9572 15.8739 32.3745 15.2968 31.6557 15.2968C30.9369 15.2968 30.3542 15.8739 30.3542 16.5857C30.3542 17.2975 30.9369 17.8745 31.6557 17.8745ZM27.1599 17.09L29.6274 19.8189L30.7253 18.603L33.8372 22.0493L31.6441 22.0493L31.6441 22.0493L22.6758 22.0493L27.1599 17.09Z" fill="white"/>
<path d="M13.25 26.2706C13.25 25.2016 14.1166 24.335 15.1856 24.335H22.5088C23.4758 24.335 24.2944 23.6214 24.4264 22.6634L24.5524 21.7482C24.6843 20.7903 25.5029 20.0766 26.4699 20.0766H34.1221C34.963 20.0766 35.7077 20.6195 35.965 21.4201L36.4699 22.9915C36.7271 23.7921 37.4718 24.335 38.3127 24.335H38.6798C39.7488 24.335 40.6154 25.2016 40.6154 26.2706V39.2392C40.6154 40.3082 39.7488 41.1748 38.6798 41.1748H15.1856C14.1166 41.1748 13.25 40.3082 13.25 39.2392V26.2706Z" fill="#DE5F5B"/>
</svg>
