<svg width="52" height="54" viewBox="0 0 52 54" fill="none" xmlns="http://www.w3.org/2000/svg">
<rect width="52" height="53.5028" rx="26" fill="#454ADE"/>
<path d="M17.4705 15.1558H20.8031C21.8623 15.1558 22.7209 16.0144 22.7209 17.0736V23.7513C22.7209 24.8105 21.8623 25.6691 20.8031 25.6691H17.4705C16.4114 25.6691 15.5527 24.8105 15.5527 23.7513V17.0736C15.5527 16.0144 16.4114 15.1558 17.4705 15.1558Z" fill="#6279B8"/>
<path d="M17.4639 17.5451H19.1364" stroke="white" stroke-width="1.43363"/>
<path d="M17.4639 19.9345H19.1364" stroke="white" stroke-width="1.43363"/>
<path d="M17.4639 22.3239H19.1364" stroke="white" stroke-width="1.43363"/>
<path d="M18.8975 14.2064V23.4118C18.8975 24.471 19.7561 25.3296 20.8153 25.3296H34.4316C35.4907 25.3296 36.3494 24.471 36.3494 23.4118V14.2064C36.3494 13.1473 35.4907 12.2886 34.4316 12.2886H20.8153C19.7561 12.2886 18.8975 13.1473 18.8975 14.2064Z" fill="#DEBC2F"/>
<path fill-rule="evenodd" clip-rule="evenodd" d="M31.057 17.7099C31.7622 17.7099 32.3339 17.1382 32.3339 16.433C32.3339 15.7277 31.7622 15.156 31.057 15.156C30.3517 15.156 29.78 15.7277 29.78 16.433C29.78 17.1382 30.3517 17.7099 31.057 17.7099ZM26.6437 16.9326L29.0649 19.6368L30.1425 18.4317L33.1957 21.8462H31.0432L31.0432 21.8462H22.2441L26.6437 16.9326Z" fill="white"/>
<path d="M13 26.0287C13 24.9695 13.8586 24.1109 14.9178 24.1109H22.0656C23.0246 24.1109 23.8362 23.4025 23.9658 22.4522L24.0888 21.5504C24.2184 20.6002 25.03 19.8918 25.989 19.8918H33.4605C34.2957 19.8918 35.0348 20.4322 35.288 21.2281L35.7801 22.7746C36.0333 23.5704 36.7725 24.1109 37.6076 24.1109H37.9313C38.9905 24.1109 39.8491 24.9695 39.8491 26.0287V38.8779C39.8491 39.9371 38.9905 40.7957 37.9313 40.7957H14.9178C13.8586 40.7957 13 39.9371 13 38.8779V26.0287Z" fill="#DE5F5B"/>
</svg>
