<svg width="52" height="54" viewBox="0 0 52 54" fill="none" xmlns="http://www.w3.org/2000/svg">
<rect width="51.2138" height="53.5641" rx="25.6069" fill="#DE5F5B"/>
<path d="M24.5 41C24.5 41.8284 25.1716 42.5 26 42.5C26.8284 42.5 27.5 41.8284 27.5 41L24.5 41ZM27.0607 10.9393C26.4749 10.3536 25.5251 10.3536 24.9393 10.9393L15.3934 20.4853C14.8076 21.0711 14.8076 22.0208 15.3934 22.6066C15.9792 23.1924 16.9289 23.1924 17.5147 22.6066L26 14.1213L34.4853 22.6066C35.0711 23.1924 36.0208 23.1924 36.6066 22.6066C37.1924 22.0208 37.1924 21.0711 36.6066 20.4853L27.0607 10.9393ZM27.5 41L27.5 12L24.5 12L24.5 41L27.5 41Z" fill="white"/>
</svg>
